<svg width="16" height="16" viewBox="0 0 16 16" fill="none" xmlns="http://www.w3.org/2000/svg">
<rect width="16" height="16" fill="#070821"/>
<path d="M1.9 12V3.996H7.192V5.304H3.532V7.452H6.712V8.772H3.532V12H1.9ZM10.2586 9.252V12H8.62656V3.996H12.0106C12.9306 3.996 13.6506 4.208 14.1706 4.632C14.6906 5.056 14.9506 5.7 14.9506 6.564C14.9506 7.428 14.6906 8.092 14.1706 8.556C13.6506 9.02 12.9306 9.252 12.0106 9.252H10.2586ZM10.2586 7.944H11.8066C12.0786 7.944 12.3066 7.912 12.4906 7.848C12.6746 7.776 12.8186 7.68 12.9226 7.56C13.0266 7.432 13.0986 7.292 13.1386 7.14C13.1866 6.988 13.2106 6.824 13.2106 6.648C13.2106 6.464 13.1866 6.292 13.1386 6.132C13.0986 5.972 13.0266 5.828 12.9226 5.7C12.8186 5.572 12.6746 5.476 12.4906 5.412C12.3066 5.34 12.0786 5.304 11.8066 5.304H10.2586V7.944Z" fill="#ABADED"/>
</svg>
